<?xml version="1.0" standalone="no"?>
<!DOCTYPE svg PUBLIC "-//W3C//DTD SVG 20010904//EN"
 "http://www.w3.org/TR/2001/REC-SVG-20010904/DTD/svg10.dtd">
<svg version="1.0" xmlns="http://www.w3.org/2000/svg"
 width="500.000000pt" height="500.000000pt" viewBox="0 0 500.000000 500.000000"
 preserveAspectRatio="xMidYMid meet">

<g transform="translate(0.000000,500.000000) scale(0.100000,-0.100000)"
fill="#000000" stroke="none">
<path d="M2494 4295 c-5 -12 0 -24 16 -37 34 -28 70 -33 115 -17 37 14 45 14
81 -2 l39 -17 -30 -6 c-16 -4 -50 -14 -74 -23 -56 -20 -104 -7 -166 47 -25 21
-61 42 -80 46 -52 9 -132 -14 -174 -51 -36 -32 -36 -32 -86 -19 -68 18 -198
18 -234 -1 -34 -17 -81 -70 -81 -91 0 -8 -10 -14 -26 -14 -39 0 -104 -68 -104
-109 0 -21 -5 -31 -15 -31 -8 0 -32 -16 -54 -35 -31 -28 -42 -48 -55 -100 -22
-90 -21 -121 9 -150 13 -14 32 -25 42 -24 12 0 7 6 -15 17 -18 9 -35 26 -39
39 -7 29 14 137 33 176 16 31 69 67 98 67 14 0 17 5 12 25 -9 34 17 81 54 100
39 20 48 19 70 -7 15 -19 21 -21 32 -10 11 11 9 17 -10 33 l-24 19 21 34 c34
54 78 69 186 64 51 -3 98 -9 105 -13 21 -13 -19 -29 -74 -31 -41 -1 -53 -6
-73 -28 -29 -34 -26 -50 9 -54 18 -2 37 7 61 27 34 31 35 31 77 16 84 -30 192
-10 245 45 47 49 9 96 -57 69 -20 -8 -37 -27 -51 -58 -19 -39 -27 -46 -55 -49
-27 -3 -32 0 -32 18 0 50 53 95 129 110 63 12 100 1 153 -45 60 -51 108 -63
167 -43 25 9 67 20 94 23 26 4 47 11 47 16 0 5 -6 9 -12 9 -7 0 -31 9 -53 20
l-40 20 70 -3 c88 -3 165 -37 235 -103 43 -40 50 -52 45 -74 -4 -20 -2 -29 10
-34 17 -6 31 16 20 34 -13 21 44 9 74 -16 35 -29 40 -60 13 -68 -23 -8 -62
-43 -62 -56 0 -6 13 -10 28 -10 31 0 72 36 72 62 0 19 62 33 87 19 10 -5 27
-19 38 -32 16 -17 17 -23 6 -27 -7 -2 -28 -17 -45 -32 -28 -25 -31 -34 -30
-82 1 -74 53 -168 93 -168 9 0 26 -8 39 -18 l23 -18 -25 -12 c-41 -19 -33 -48
22 -76 17 -9 32 -22 32 -29 0 -6 -11 -36 -25 -66 -14 -30 -23 -56 -20 -59 2
-3 9 6 14 19 44 114 48 119 91 119 100 0 133 78 83 202 -19 49 -34 41 -20 -12
7 -26 8 -49 1 -67 -8 -24 -16 -28 -51 -31 -45 -3 -128 31 -118 48 4 6 -1 10
-9 10 -21 0 -32 48 -17 72 7 11 10 22 8 25 -11 10 -29 -41 -25 -68 5 -33 1
-35 -29 -14 -22 15 -63 110 -63 145 0 53 65 115 94 90 11 -8 10 -18 -6 -49
-14 -29 -16 -44 -9 -63 11 -29 46 -42 73 -27 14 7 24 7 34 -2 22 -18 17 -50
-13 -82 -25 -26 -25 -28 -6 -18 62 32 51 133 -12 117 -19 -5 -22 -2 -17 19 2
13 -1 38 -6 55 -10 28 -9 30 14 36 14 4 36 2 50 -5 13 -6 24 -6 24 -1 0 18
-45 40 -82 40 -30 0 -42 6 -59 29 -28 38 -67 54 -112 46 -30 -6 -36 -4 -42 14
-9 29 -58 61 -92 61 -21 0 -40 12 -71 46 -62 65 -124 101 -208 120 -57 12 -81
13 -105 5 -24 -8 -37 -7 -60 5 -17 8 -52 18 -79 21 -42 5 -51 3 -56 -12z m121
-15 c29 -11 29 -12 11 -26 -34 -24 -73 -17 -125 22 -1 1 0 8 4 14 9 14 63 9
110 -10z m-220 -50 c17 -28 -46 -77 -119 -94 l-28 -7 21 27 c12 15 21 31 21
37 0 6 7 19 17 29 18 20 78 25 88 8z m-215 -66 c0 -22 -3 -25 -22 -20 -13 3
-26 6 -30 6 -16 0 -7 17 15 28 33 16 37 14 37 -14z m-115 0 c14 -6 12 -11 -11
-35 -28 -29 -58 -37 -68 -20 -4 5 8 21 25 35 34 29 32 28 54 20z m-215 -84 c0
-5 -2 -10 -4 -10 -3 0 -8 5 -11 10 -3 6 -1 10 4 10 6 0 11 -4 11 -10z m1200
-6 c0 -8 -4 -12 -10 -9 -5 3 -10 10 -10 16 0 5 5 9 10 9 6 0 10 -7 10 -16z
m114 -89 c-8 -19 -36 -35 -61 -35 -15 1 -13 5 10 25 32 28 60 33 51 10z m231
-45 c-28 -12 -45 -12 -45 0 0 6 15 10 33 9 27 0 29 -2 12 -9z m-31 -66 c8 -32
-2 -66 -17 -61 -7 2 -13 16 -15 31 -7 54 20 78 32 30z m211 -254 c-9 -41 -49
-70 -96 -70 -34 0 -39 3 -39 23 0 12 -5 29 -11 37 -8 11 -9 7 -4 -17 6 -28 4
-33 -13 -33 -11 0 -30 8 -43 19 -20 16 -21 21 -11 34 11 13 28 15 88 10 63 -4
78 -2 95 13 10 9 19 24 19 33 1 13 2 13 11 -2 6 -10 8 -31 4 -47z"/>
<path d="M1501 3665 c-13 -31 -21 -58 -19 -61 3 -3 11 9 17 27 l11 32 23 -21
c40 -37 99 -56 170 -53 36 1 107 65 91 81 -8 8 -29 7 -80 -4 -65 -15 -66 -16
-16 -11 29 3 59 8 67 11 29 12 15 -26 -17 -46 -42 -25 -110 -26 -165 -1 -43
20 -59 47 -48 81 14 43 -11 17 -34 -35z"/>
<path d="M3115 3704 c-19 -19 -20 -74 -1 -99 10 -14 12 -35 9 -72 -5 -50 -4
-54 30 -88 23 -23 44 -35 64 -35 27 -1 27 -1 9 -15 -11 -8 -39 -15 -62 -15
-77 0 -134 72 -134 168 0 59 -7 82 -25 82 -25 0 -26 -19 -6 -77 11 -32 22 -95
25 -140 8 -121 35 -163 107 -163 25 0 42 10 76 45 45 48 52 46 29 -8 -31 -73
-106 -104 -178 -74 -38 16 -63 46 -121 146 -37 64 -78 87 -118 68 -20 -11 -24
-21 -27 -64 -4 -70 11 -97 48 -89 28 5 29 5 18 -27 -29 -85 -117 -123 -174
-74 -27 23 -27 25 -14 71 9 34 10 50 2 58 -13 13 -42 3 -42 -14 0 -9 3 -9 10
2 17 27 33 -2 19 -36 l-11 -29 -9 24 c-5 13 -12 22 -14 19 -3 -3 -1 -17 5 -32
7 -18 7 -33 0 -46 -19 -35 -12 -82 17 -112 l27 -28 -51 0 c-61 0 -146 41 -171
82 -16 26 -15 28 11 56 30 31 35 67 12 76 -24 9 -55 -29 -55 -67 0 -33 -15
-57 -35 -57 -7 0 -10 26 -9 73 l3 72 -9 -74 c-8 -74 -18 -91 -52 -91 -22 0
-22 1 -3 36 8 16 15 40 14 54 0 19 -4 14 -14 -18 -17 -54 -33 -74 -56 -67 -9
3 -20 1 -24 -5 -4 -6 17 -10 60 -10 58 0 66 -2 61 -17 -2 -10 -7 -47 -10 -83
-5 -63 -5 -62 12 23 14 76 21 91 42 102 23 12 27 11 52 -20 56 -68 171 -95
253 -61 44 19 45 26 1 19 -54 -8 -91 46 -70 101 5 14 11 12 36 -9 59 -50 152
-22 188 58 19 40 27 97 14 97 -3 0 -14 -10 -25 -22 -19 -23 -19 -23 -34 -4
-18 24 -20 97 -3 114 19 19 63 14 85 -10 11 -13 34 -48 52 -79 58 -105 114
-140 196 -125 52 10 92 50 110 108 8 28 12 54 9 59 -3 5 -29 -15 -58 -46 -53
-56 -78 -66 -117 -45 -28 16 -48 61 -55 127 l-6 58 34 -38 c35 -40 86 -60 127
-51 30 7 124 64 117 71 -2 3 -13 0 -24 -6 -75 -40 -162 25 -150 110 3 22 8 24
53 24 49 0 52 -2 104 -59 51 -57 53 -59 47 -105 -4 -25 -8 -84 -10 -131 l-3
-85 6 75 c4 45 13 85 23 100 14 21 15 31 5 65 -7 21 -28 55 -47 75 -65 65 -66
68 -41 94 27 29 24 60 -6 64 -25 4 -48 -29 -40 -58 5 -20 -29 -35 -57 -24 -19
7 -19 9 -6 53 17 61 -11 109 -45 75z m35 -41 c0 -21 -5 -45 -10 -53 -9 -13
-11 -13 -20 0 -11 17 -13 73 -3 83 18 19 33 5 33 -30z m128 -36 c5 -23 -36
-43 -44 -22 -7 18 14 47 30 42 6 -2 12 -11 14 -20z m-258 -57 c0 -20 -2 -22
-10 -10 -5 8 -10 26 -10 40 0 20 2 22 10 10 5 -8 10 -26 10 -40z m-540 -333
c0 -17 -29 -57 -41 -57 -13 0 -11 44 3 58 16 16 38 15 38 -1z"/>
<path d="M1481 3564 c-1 -11 10 -30 23 -43 19 -18 24 -36 29 -95 7 -77 -3
-126 -31 -158 -21 -25 -58 -22 -77 4 -15 22 -15 20 -9 -27 8 -59 32 -106 61
-120 12 -5 24 -19 28 -32 7 -30 40 -59 99 -90 l48 -24 -6 -62 c-7 -58 -5 -64
17 -86 36 -33 95 -39 127 -12 19 15 21 20 9 21 -19 0 -49 31 -49 49 0 10 6 9
25 -3 30 -20 77 -21 114 -1 57 29 136 145 110 160 -5 4 -9 2 -9 -3 0 -5 -11
-21 -25 -37 -31 -32 -64 -29 -107 12 -33 32 -44 79 -28 127 19 59 35 61 35 4
0 -40 4 -53 24 -69 23 -19 95 -27 105 -11 3 5 -2 28 -10 52 -33 97 15 208 114
263 29 16 55 28 57 25 3 -2 -6 -20 -19 -39 -13 -19 -31 -59 -40 -89 -19 -63
-18 -60 -7 -60 5 0 11 18 15 41 13 79 49 131 115 163 47 22 47 21 5 -16 -21
-18 -45 -51 -55 -73 -22 -51 -37 -175 -20 -175 7 0 11 21 11 58 0 117 42 188
120 202 58 11 79 -7 90 -81 l8 -54 1 45 c2 102 -56 136 -176 104 -118 -31
-181 -74 -219 -152 -20 -40 -25 -124 -11 -179 8 -32 7 -33 -20 -33 -65 0 -92
50 -73 135 6 26 9 49 7 51 -2 2 -20 -24 -40 -58 -41 -69 -46 -111 -22 -159 28
-53 104 -86 133 -57 7 7 12 8 12 2 0 -5 -19 -29 -43 -52 -51 -51 -102 -64
-142 -38 -30 20 -31 29 -4 66 33 44 9 101 -35 84 -20 -8 -26 -39 -15 -77 5
-17 9 -49 9 -69 0 -26 6 -41 21 -52 26 -18 17 -36 -19 -36 -27 0 -69 23 -84
44 -4 6 -5 36 -1 67 5 52 4 57 -22 77 -15 12 -34 22 -41 22 -18 0 -84 65 -84
83 0 9 9 19 20 22 28 9 56 53 43 66 -24 24 -47 6 -80 -59 -6 -12 -43 23 -52
49 -17 50 -14 58 26 61 30 2 41 9 58 38 17 29 20 50 18 123 l-3 87 28 0 c37 0
67 22 59 44 -9 22 -50 20 -72 -4 -17 -19 -19 -19 -38 -3 -11 10 -23 27 -28 38
-8 20 -8 20 -8 -1z m136 -41 c5 -13 -43 -30 -54 -19 -3 3 0 13 7 21 15 18 41
16 47 -2z m-59 -355 c-2 -15 -11 -24 -25 -26 -27 -4 -30 10 -7 32 22 23 36 20
32 -6z m228 -152 c7 -18 -26 -77 -38 -70 -4 3 -8 23 -8 45 0 33 3 39 20 39 11
0 23 -7 26 -14z"/>
<path d="M2315 3405 c4 -11 11 -51 16 -90 l7 -70 -2 77 c-1 51 -6 82 -15 90
-12 11 -13 10 -6 -7z"/>
<path d="M2082 3129 c-1 -55 3 -102 13 -128 16 -47 54 -105 63 -97 3 3 -2 14
-10 23 -37 43 -52 90 -58 188 l-7 100 -1 -86z"/>
<path d="M3332 3128 c-3 -67 -19 -98 -51 -97 l-26 0 23 16 c46 32 20 82 -53
102 -84 23 -285 2 -285 -29 0 -6 36 -10 83 -10 66 0 92 -5 135 -25 28 -13 52
-28 52 -32 0 -14 -48 -31 -62 -22 -22 14 -155 11 -161 -4 -6 -16 26 -84 55
-115 15 -15 30 -22 43 -18 11 2 54 13 95 24 48 13 77 16 81 10 4 -6 14 -45 23
-87 9 -42 28 -113 42 -157 19 -62 22 -88 15 -107 -11 -27 -39 -47 -67 -47 -13
0 -14 3 -5 14 17 20 2 46 -29 53 -18 3 -30 13 -34 27 -8 34 -45 76 -65 76 -28
0 -54 -36 -55 -77 l-1 -38 53 1 c49 2 53 0 50 -20 -2 -14 -9 -20 -23 -18 -52
6 -104 2 -143 -11 l-44 -15 20 21 c45 51 54 92 18 83 -21 -5 -25 -2 -28 21 -3
26 -7 28 -50 31 -40 3 -49 0 -65 -23 -10 -15 -31 -41 -46 -58 -29 -33 -30 -31
-12 31 7 24 -4 29 -23 10 -9 -9 -12 -6 -12 15 0 41 -16 32 -42 -22 -26 -55
-24 -54 -121 -24 -26 8 -58 12 -71 9 -15 -4 -28 0 -36 9 -14 16 -50 21 -50 6
0 -6 -15 -7 -34 -4 -19 3 -36 1 -40 -6 -4 -6 -19 -11 -33 -11 -25 0 -25 0 -8
-27 l17 -28 -22 21 c-12 12 -27 45 -35 75 -8 35 -13 45 -14 28 -1 -15 6 -45
14 -68 11 -34 12 -41 1 -41 -8 0 -19 7 -26 15 -14 16 -80 21 -80 5 0 -5 -13
-16 -30 -25 -16 -9 -30 -19 -30 -24 0 -5 14 -14 30 -21 18 -8 30 -20 30 -31 0
-23 -13 -24 -30 -4 -11 13 -40 21 -40 11 0 -2 7 -20 15 -40 19 -46 53 -67 123
-78 31 -5 62 -14 69 -20 11 -9 12 -7 6 8 -13 35 -92 160 -113 179 -11 10 -20
24 -20 32 0 20 47 16 71 -8 12 -12 27 -18 39 -14 14 4 23 -1 34 -23 14 -28 12
-55 -9 -121 -4 -15 -3 -21 3 -17 11 7 22 -16 22 -45 0 -11 -4 -17 -10 -14 -5
3 -10 -2 -10 -11 0 -15 -5 -13 -28 9 -50 48 -122 45 -122 -5 0 -10 -7 -21 -15
-24 -8 -4 -15 -12 -15 -19 0 -7 -18 -15 -39 -19 -25 -4 -46 -15 -55 -28 -22
-31 -21 -51 3 -43 16 5 15 -2 -10 -51 -16 -31 -29 -67 -29 -80 0 -20 5 -24 33
-24 17 0 45 7 61 15 15 8 30 15 32 15 10 0 2 -44 -12 -71 -8 -17 -13 -33 -10
-37 3 -3 6 0 6 6 0 21 54 74 101 97 27 14 51 25 55 25 11 0 -3 -273 -16 -312
-16 -44 -30 -40 -30 8 0 31 -2 34 -19 24 -11 -5 -25 -10 -31 -10 -19 0 2 54
36 93 19 20 34 46 34 57 0 26 -8 25 -39 -3 -15 -13 -43 -30 -63 -39 l-37 -17
-4 32 c-3 27 -4 26 -5 -10 l-2 -43 65 34 c69 36 83 31 36 -13 -28 -27 -51 -94
-37 -109 4 -3 16 -1 26 6 27 17 27 17 34 -30 12 -76 21 -79 71 -23 25 27 51
50 58 50 6 0 22 4 34 8 16 6 31 2 52 -14 40 -30 44 -54 15 -96 -33 -49 -31
-63 9 -62 23 0 27 2 14 8 -17 6 -16 8 5 27 44 40 73 54 108 54 l36 0 -42 -45
c-45 -48 -61 -55 -66 -27 -2 11 -6 13 -10 6 -4 -6 -1 -20 7 -30 14 -18 17 -17
59 29 24 26 52 47 61 47 14 0 14 -3 -4 -26 -12 -15 -21 -31 -21 -36 0 -12 -43
-68 -89 -115 -28 -28 -31 -37 -20 -44 8 -5 21 -9 30 -9 23 0 30 -11 18 -26 -9
-11 -7 -15 7 -20 11 -3 27 -10 36 -15 32 -16 60 -9 90 23 30 32 35 31 52 -7 3
-5 12 -1 20 9 13 16 19 17 28 8 9 -9 9 -15 0 -24 -19 -19 -14 -28 17 -28 15 0
41 10 56 22 l28 22 -6 -27 c-5 -19 -3 -29 10 -36 15 -8 16 -12 6 -22 -7 -7
-13 -19 -13 -26 0 -23 30 -14 61 17 25 24 30 37 27 67 -2 31 -9 41 -35 53 -27
13 -30 19 -26 43 4 21 -1 33 -21 52 -14 13 -26 33 -26 44 0 12 -11 26 -27 35
l-28 14 40 37 c34 31 38 39 24 47 -14 10 -14 14 0 44 15 30 19 32 53 27 49 -7
83 19 103 80 13 37 21 47 39 47 13 0 31 9 41 19 16 19 16 21 -5 50 -28 40 -48
50 -84 44 -22 -4 -27 -2 -24 8 4 9 18 13 44 11 29 -2 35 0 24 8 -8 5 -23 10
-32 10 -21 0 -25 6 -32 53 -3 22 -2 37 4 37 6 0 10 -4 10 -10 0 -5 8 -6 17 -3
14 6 11 9 -15 20 -53 22 -36 73 25 77 16 1 34 5 41 9 14 10 16 63 2 72 -6 4
-7 -6 -4 -24 5 -23 2 -32 -10 -37 -9 -4 -18 -5 -20 -3 -6 6 8 80 14 78 15 -6
79 14 92 29 24 28 41 97 34 135 l-7 35 35 -10 c50 -16 84 -3 103 37 16 34 16
38 -10 123 -49 161 -69 259 -57 282 15 28 3 25 -24 -6 -17 -21 -34 -28 -74
-32 -29 -2 -52 -2 -52 2 0 19 35 56 52 56 17 0 18 3 9 14 -21 25 19 34 86 20
44 -9 65 25 60 98 l-3 53 -2 -47z m-73 -6 c36 -26 38 -49 7 -63 -21 -10 -29
-9 -44 4 -39 36 -106 57 -181 57 -41 0 -72 3 -68 6 15 16 80 23 166 19 73 -3
100 -8 120 -23z m-169 -144 l0 -32 -30 29 c-16 16 -30 30 -30 32 0 2 14 3 30
3 27 0 30 -3 30 -32z m40 22 c11 -7 12 -14 4 -27 -18 -30 -34 -27 -34 6 0 33
6 37 30 21z m-79 -35 c22 -19 46 -35 55 -35 14 0 14 -3 4 -15 -27 -33 -60 -12
-99 63 -17 31 -5 28 40 -13z m116 -297 c34 -38 36 -57 7 -68 -38 -15 -74 -12
-81 6 -8 20 23 84 40 84 7 0 23 -10 34 -22z m-249 -20 c8 -42 -49 -107 -83
-94 -12 4 -7 16 23 60 36 54 54 64 60 34z m49 14 c13 -8 7 -52 -7 -52 -5 0
-15 -2 -22 -5 -11 -4 -13 3 -10 30 4 34 15 42 39 27z m-207 -53 c-11 -36 -17
-45 -26 -36 -8 8 15 67 27 67 4 0 4 -14 -1 -31z m-260 6 c13 -15 6 -35 -13
-35 -6 0 -23 -11 -37 -25 -24 -23 -28 -23 -53 -10 -15 7 -27 10 -27 5 0 -4 7
-11 16 -14 8 -3 12 -10 9 -16 -14 -22 26 -8 58 20 40 35 47 37 47 11 0 -29 36
-67 84 -91 25 -11 50 -27 56 -35 7 -8 16 -12 21 -9 21 13 5 36 -43 61 -70 37
-78 39 -48 13 l25 -22 -25 14 c-14 9 -25 19 -25 24 0 5 -9 22 -19 37 -19 28
-19 29 2 49 20 21 21 21 89 3 37 -10 69 -19 71 -21 2 -1 -6 -17 -17 -35 -23
-37 -27 -59 -11 -59 6 0 10 7 10 15 0 9 11 27 25 40 29 30 92 34 130 9 20 -13
28 -14 40 -4 10 9 15 9 15 1 0 -6 -4 -11 -9 -11 -6 0 -6 -12 0 -32 10 -36 -3
-89 -26 -108 -11 -9 -27 -5 -76 19 -34 17 -66 28 -71 25 -12 -8 30 -40 80 -59
37 -15 42 -21 42 -50 0 -35 -11 -48 -48 -60 -18 -5 -30 1 -57 29 -19 20 -37
52 -41 71 -3 19 -11 35 -16 35 -6 0 -7 -10 -4 -22 16 -52 18 -98 7 -112 -7 -8
-32 -23 -57 -32 -36 -14 -49 -14 -73 -4 -36 14 -46 37 -28 59 18 21 28 63 19
78 -4 6 -20 17 -36 23 -19 7 -26 15 -22 26 10 27 -12 54 -44 54 -22 0 -30 5
-30 18 0 10 -5 23 -11 29 -13 13 -23 84 -12 81 5 -1 19 4 32 11 18 10 29 10
48 2 31 -14 33 -14 27 4 -8 19 10 19 26 0z m300 -7 c0 -19 -18 -43 -25 -36 -4
3 -2 16 5 27 12 24 20 27 20 9z m219 -10 c-19 -37 -41 -58 -61 -58 -25 0 -23
-16 4 -23 18 -5 19 -8 8 -21 -22 -28 -80 -17 -80 14 0 31 11 50 30 50 9 0 25
10 36 21 17 20 48 37 67 38 4 1 2 -9 -4 -21z m-84 -18 c-3 -5 -12 -10 -18 -10
-7 0 -6 4 3 10 19 12 23 12 15 0z m323 -2 c7 -7 12 -16 12 -20 0 -12 -58 -10
-65 2 -16 26 30 41 53 18z m-1015 -65 c36 -50 67 -106 67 -121 0 -14 -93 2
-120 21 -13 9 -30 31 -37 48 -13 32 -13 32 6 15 25 -23 54 -14 49 15 -2 18
-12 28 -47 46 -1 1 0 6 4 12 14 24 45 9 78 -36z m958 6 c5 -8 8 -30 7 -49 -3
-33 -5 -35 -48 -41 -25 -4 -46 -5 -48 -4 -2 2 5 12 16 23 l21 21 -46 15 c-26
9 -62 16 -80 16 -41 0 -35 16 10 30 44 13 157 6 168 -11z m-120 -40 l37 -12
-16 -33 c-8 -19 -18 -34 -21 -35 -42 -6 -60 -2 -89 18 -19 12 -46 23 -61 23
-24 0 -25 1 -6 14 50 34 99 42 156 25z m-176 -8 c3 -5 1 -12 -5 -16 -5 -3 -10
1 -10 9 0 18 6 21 15 7z m-455 -46 c0 -25 5 -37 18 -41 49 -15 69 -44 30 -44
-23 -1 -23 -1 -3 -16 20 -15 20 -15 1 -30 -25 -18 -38 -18 -80 0 -31 13 -34
17 -40 77 -8 69 3 89 51 89 20 0 23 -5 23 -35z m531 -17 c44 -25 45 -25 23
-57 -14 -19 -23 -22 -50 -18 -19 3 -34 2 -34 -4 0 -5 6 -9 14 -9 25 0 55 -35
62 -72 l6 -38 -40 0 c-35 0 -45 5 -68 35 -15 20 -29 33 -32 30 -3 -3 4 -19 16
-35 23 -30 29 -60 13 -60 -5 0 -23 12 -40 26 -40 33 -43 79 -6 88 14 4 25 13
25 21 0 9 6 24 13 36 10 17 9 22 -6 30 -18 10 -18 12 -1 30 22 25 57 24 105
-3z m207 -4 c-2 -9 -15 -26 -30 -37 -24 -18 -31 -19 -55 -8 l-28 13 28 24 c33
29 90 34 85 8z m-423 -4 c3 -6 -1 -7 -9 -4 -18 7 -21 14 -7 14 6 0 13 -4 16
-10z m275 -35 c0 -8 -4 -15 -10 -15 -5 0 -7 7 -4 15 4 8 8 15 10 15 2 0 4 -7
4 -15z m-175 -4 c3 -5 1 -12 -5 -16 -6 -4 -8 -10 -5 -15 3 -5 1 -11 -4 -14
-12 -7 -25 30 -16 44 8 13 22 13 30 1z m-553 -32 c10 -12 15 -26 11 -33 -4 -6
-8 -15 -8 -21 0 -5 -27 -24 -60 -43 -33 -18 -83 -57 -111 -87 -29 -29 -62 -58
-74 -65 -20 -11 -21 -10 -15 12 4 12 20 42 36 66 34 51 35 52 9 52 -24 0 -26
13 -3 31 11 10 44 14 104 14 62 0 92 4 101 14 11 12 10 13 -7 6 -64 -26 -143
-11 -102 19 9 7 17 22 17 34 0 11 6 23 13 26 23 10 72 -4 89 -25z m758 -7 c0
-40 -14 -57 -30 -37 -7 8 -21 15 -31 15 -10 0 -21 5 -25 12 -4 6 -3 8 3 5 5
-3 22 5 39 18 34 27 44 24 44 -13z m-370 -32 c0 -17 54 -38 83 -33 19 4 27 1
27 -9 0 -9 10 -28 22 -43 l22 -28 -42 6 c-25 5 -52 18 -68 34 -15 15 -29 23
-31 17 -2 -6 -15 -9 -28 -6 -15 2 -25 0 -25 -7 0 -6 -15 -11 -32 -11 l-33 0
38 22 c21 12 40 33 43 45 6 23 24 32 24 13z m-340 -30 c0 -23 -9 -35 -46 -60
-50 -35 -62 -34 -44 2 10 18 77 86 88 88 1 0 2 -13 2 -30z m70 17 c19 -6 51
-24 71 -39 20 -16 43 -28 52 -28 10 0 17 -6 17 -14 0 -7 9 -25 20 -39 17 -22
18 -26 5 -37 -30 -25 -16 -33 50 -27 71 7 81 -7 14 -18 -34 -6 -40 -10 -36
-26 6 -23 -15 -26 -33 -5 -6 8 -23 16 -38 18 -25 3 -26 6 -24 44 2 27 -2 45
-12 53 -9 8 -16 20 -16 28 0 12 -3 12 -16 -2 -25 -25 -49 -15 -52 23 -4 36 3
39 38 16 22 -14 22 -12 -3 10 -32 30 -44 32 -49 10 -2 -11 -8 -6 -21 15 -20
34 -17 36 33 18z m594 7 c20 -8 21 -30 2 -37 -18 -7 -26 1 -26 25 0 20 1 21
24 12z m-626 -49 c10 -21 9 -33 -4 -63 -9 -20 -18 -32 -21 -25 -3 8 -21 10
-56 7 l-52 -5 25 20 c14 11 37 30 53 41 15 12 27 28 27 36 0 22 16 16 28 -11z
m-143 -32 c-3 -10 -10 -38 -15 -62 -8 -46 -60 -113 -60 -78 0 21 -12 21 -51 1
-17 -8 -39 -14 -49 -12 -14 2 4 24 72 86 89 81 117 98 103 65z m442 5 c6 -7
13 -26 15 -41 5 -23 2 -27 -11 -22 -9 4 -29 12 -46 17 -16 6 -37 17 -45 26
-13 13 -11 14 20 8 18 -3 38 -12 42 -19 5 -7 6 0 2 16 -6 28 6 36 23 15z m63
-41 c0 -16 -21 -48 -28 -43 -4 2 -6 24 -4 47 4 39 6 41 18 24 8 -10 14 -23 14
-28z m240 22 c0 -5 -13 -9 -29 -9 -16 0 -36 -6 -44 -14 -9 -9 -19 -11 -28 -5
-10 6 -10 9 -1 9 6 0 12 6 12 13 0 10 14 14 45 15 25 0 45 -4 45 -9z m-570
-37 c0 -13 2 -14 9 -4 6 10 10 4 15 -19 8 -40 0 -51 -13 -18 -9 22 -10 22 -10
4 -1 -24 17 -45 37 -45 9 0 11 6 6 23 -9 24 -9 65 -1 73 12 13 47 -23 47 -48
0 -30 -18 -51 -62 -74 -28 -14 -30 -14 -48 8 -10 13 -34 33 -54 43 -20 11 -36
23 -36 27 0 13 38 29 45 18 10 -17 25 -11 37 15 12 26 28 25 28 -3z m278 -30
c4 -12 -74 -26 -104 -20 -16 3 -13 8 16 26 29 18 31 22 14 22 -12 0 -27 7 -34
15 -8 10 6 7 46 -9 32 -13 60 -29 62 -34z m98 -40 c5 -52 4 -72 -5 -72 -25 0
-47 93 -31 134 16 43 28 22 36 -62z m59 78 c-3 -5 -10 -10 -16 -10 -5 0 -9 5
-9 10 0 6 7 10 16 10 8 0 12 -4 9 -10z m140 -1 c11 -17 -2 -22 -40 -15 -19 4
-33 11 -30 17 8 12 62 12 70 -2z m-163 -22 c25 -25 26 -52 2 -61 -10 -4 -14 3
-14 29 0 19 -4 35 -10 35 -5 0 -10 5 -10 10 0 15 7 12 32 -13z m43 3 c3 -5 -1
-10 -9 -10 -9 0 -16 5 -16 10 0 6 4 10 9 10 6 0 13 -4 16 -10z m-579 -11 c7
-13 -29 -45 -59 -53 -17 -4 -17 -2 -4 17 7 12 17 28 21 35 9 15 33 16 42 1z
m624 -36 c0 -7 -7 -13 -16 -13 -8 0 -12 -4 -9 -10 3 -5 2 -10 -4 -10 -22 0
-29 33 -12 56 15 21 17 21 29 7 6 -9 12 -23 12 -30z m84 26 c11 -9 1 -39 -14
-39 -5 0 -10 7 -10 15 0 13 -4 14 -21 5 -24 -13 -24 -13 -33 17 -7 20 -5 22
31 16 21 -3 42 -9 47 -14z m-264 -19 c0 -5 -2 -10 -4 -10 -3 0 -8 5 -11 10 -3
6 -1 10 4 10 6 0 11 -4 11 -10z m-346 -60 c21 -25 26 -42 26 -83 0 -37 -3 -48
-10 -37 -7 11 -10 6 -10 -22 0 -45 -21 -102 -27 -75 -6 25 -23 21 -23 -6 0
-24 -55 -107 -71 -107 -12 0 -12 6 11 78 15 49 20 92 20 188 l0 125 29 -15
c16 -9 40 -29 55 -46z m353 -9 c7 -30 -8 -56 -33 -56 -11 0 -25 -4 -31 -8 -9
-6 -13 0 -14 20 0 15 -3 22 -6 16 -6 -17 -28 -16 -43 2 -10 12 -10 15 0 15 7
0 10 8 7 19 -4 15 2 20 27 24 38 6 43 2 26 -18 -7 -9 -10 -18 -7 -21 3 -4 14
10 24 30 16 35 18 36 31 19 7 -10 16 -29 19 -42z m209 37 c-3 -7 -7 -25 -10
-40 -6 -27 -51 -88 -66 -88 -4 0 -10 9 -13 20 -3 11 -1 20 4 20 5 0 17 17 27
38 16 35 39 61 54 62 4 0 6 -6 4 -12z m34 -8 c-20 -13 -33 -13 -25 0 3 6 14
10 23 10 15 0 15 -2 2 -10z m-472 -26 c2 -13 -10 -26 -37 -41 -50 -29 -51 -29
-51 5 0 20 8 31 33 43 39 20 51 18 55 -7z m352 1 c0 -37 -14 -49 -39 -34 -25
16 -27 27 -6 35 8 4 13 9 11 13 -3 4 4 7 15 7 12 0 19 -7 19 -21z m-292 -18
c7 -15 18 -27 25 -27 7 0 18 -4 26 -9 11 -7 10 -15 -8 -45 -13 -20 -28 -36
-34 -36 -22 1 -47 27 -47 49 0 12 -7 24 -15 27 -14 6 -13 8 1 19 11 8 15 20
11 34 -8 33 24 23 41 -12z m463 5 c32 3 79 -35 79 -64 0 -22 -52 -38 -58 -18
-8 23 -41 50 -62 50 -13 0 -22 -9 -26 -27 -10 -50 -13 -53 -43 -53 -43 0 -47
17 -13 53 16 18 33 42 36 54 6 19 10 21 34 12 14 -6 38 -9 53 -7z m-261 -26
c0 -3 -4 -8 -10 -11 -5 -3 -10 -1 -10 4 0 6 5 11 10 11 6 0 10 -2 10 -4z m59
-44 c0 -15 3 -42 7 -60 l7 -34 -36 6 c-30 5 -36 2 -40 -16 -4 -12 -9 -20 -11
-17 -8 8 15 129 24 129 4 0 12 -19 18 -42 11 -42 11 -42 6 -5 -3 25 -1 37 8
37 9 0 9 3 0 12 -7 7 -12 18 -12 26 0 12 3 12 15 2 8 -6 14 -24 14 -38z m-313
7 c3 -5 2 -18 -1 -29 -8 -25 -72 -29 -81 -5 -7 18 14 47 27 39 5 -3 9 -1 9 4
0 12 38 4 46 -9z m524 -41 c0 -4 -7 -25 -15 -45 -22 -52 -57 -77 -100 -69 -42
8 -46 14 -38 59 5 33 9 36 42 39 27 2 37 8 39 23 7 45 11 47 42 24 16 -13 30
-26 30 -31z m-320 33 c0 -12 -63 -67 -107 -95 l-43 -26 0 25 c0 26 43 74 66
75 6 0 17 6 23 14 11 14 61 19 61 7z m13 -73 c-1 -40 -2 -76 -3 -80 0 -14 -32
-38 -42 -32 -5 3 -7 23 -3 45 9 54 -16 53 -38 -1 -14 -36 -19 -40 -51 -40 -63
0 -47 32 48 95 32 21 65 49 73 62 8 13 16 23 17 23 0 0 0 -33 -1 -72z m17 22
l-8 -35 -1 31 c-1 17 2 34 6 37 11 12 12 3 3 -33z m-212 -6 c25 -7 29 -40 11
-95 -18 -52 -24 -54 -74 -25 -43 26 -45 29 -39 62 5 25 2 35 -9 40 -9 3 -14
11 -11 17 4 13 81 13 122 1z m332 -4 c16 -31 3 -62 -22 -54 -14 4 -18 2 -14
-5 4 -6 13 -11 21 -11 25 0 28 -38 5 -70 -26 -37 -39 -39 -32 -5 2 14 -1 32
-8 40 -15 19 -5 65 15 65 10 0 15 10 15 30 0 35 5 38 20 10z m-464 -76 c-12
-31 -25 -3 -13 29 11 29 12 30 15 9 2 -13 1 -30 -2 -38z m267 -9 c-3 -21 -1
-41 6 -49 10 -12 8 -17 -10 -26 -22 -12 -22 -12 -16 39 6 48 13 71 22 71 2 0
1 -16 -2 -35z m127 15 c0 -5 -4 -10 -10 -10 -5 0 -10 5 -10 10 0 6 5 10 10 10
6 0 10 -4 10 -10z m-11 -32 c13 -22 12 -28 -5 -51 -22 -30 -46 -34 -65 -11
-10 12 -10 19 -1 32 7 10 17 27 22 40 12 28 30 25 49 -10z m25 -53 c-7 -38 -4
-41 26 -23 15 10 22 10 31 1 10 -10 2 -17 -35 -33 -82 -35 -106 -20 -57 36 17
19 31 39 31 44 0 6 2 10 5 10 3 0 3 -16 -1 -35z m-194 4 c0 -15 -7 -19 -34
-19 -24 0 -46 -10 -76 -35 -24 -20 -45 -34 -47 -31 -10 9 30 56 48 56 24 0 25
17 2 23 -14 4 -12 5 5 6 12 0 22 5 22 10 0 6 18 9 40 9 32 0 40 -4 40 -19z
m104 -35 c21 -21 20 -38 -1 -29 -10 4 -26 10 -35 12 -10 3 -18 12 -18 19 0 19
35 18 54 -2z m10 -89 c17 -33 21 -36 31 -22 9 12 14 14 23 5 19 -19 14 -38
-14 -49 -15 -5 -28 -8 -28 -7 -1 2 -10 22 -20 45 -11 23 -27 50 -37 59 -26 24
-24 39 4 22 12 -8 31 -32 41 -53z m-79 -37 c-8 -99 -26 -148 -53 -148 -13 0
-19 6 -18 18 1 12 -8 18 -31 20 -38 4 -40 9 -13 37 39 39 90 107 90 119 0 11
19 36 28 36 3 0 1 -37 -3 -82z m165 78 c0 -8 -31 -36 -41 -36 -19 0 -8 29 14
33 12 2 23 5 25 6 1 0 2 -1 2 -3z m-63 -21 c9 -25 -4 -29 -17 -6 -7 15 -7 21
0 21 6 0 13 -7 17 -15z m-42 -55 c15 -34 16 -46 6 -80 -20 -68 -78 -120 -104
-93 -4 3 3 17 15 30 16 17 24 44 32 112 11 98 19 103 51 31z m126 30 c10 -6
19 -19 19 -30 0 -11 12 -30 26 -44 21 -19 25 -30 20 -50 -7 -27 -26 -27 -26 0
0 8 -9 14 -20 14 -24 0 -46 33 -54 83 -7 39 0 45 35 27z m-33 -122 c3 -45 -8
-62 -23 -38 -9 15 -25 12 -25 -5 0 -24 -20 -17 -22 8 -4 60 12 90 46 85 17 -2
22 -11 24 -50z m62 -24 c0 -20 -24 -44 -44 -44 -3 0 -6 17 -6 39 0 35 2 38 25
33 18 -3 25 -11 25 -28z m78 -30 c28 -20 29 -61 0 -91 -26 -28 -42 -30 -33 -4
3 11 1 22 -5 26 -5 3 -10 24 -10 46 0 43 12 49 48 23z m-83 -24 c-3 -5 -18
-10 -33 -9 l-27 1 25 8 c35 11 42 11 35 0z"/>
<path d="M2151 3132 c-2 -36 25 -77 71 -111 61 -45 69 -38 10 9 -57 44 -62 51
-73 94 -5 25 -7 26 -8 8z"/>
<path d="M2319 2888 c-28 -52 -69 -61 -115 -26 l-29 22 25 -28 c25 -28 57 -31
102 -12 14 7 15 3 7 -31 -5 -21 -8 -49 -8 -63 1 -14 10 15 20 64 20 93 19 114
-2 74z"/>
<path d="M1348 1108 c7 -7 12 -30 12 -53 0 -23 -5 -46 -12 -53 -9 -9 -6 -12
13 -12 23 0 25 3 22 33 l-4 32 29 -32 c16 -18 36 -33 44 -33 11 0 5 11 -19 35
-35 35 -35 36 -17 56 11 12 28 25 39 30 18 7 17 8 -7 8 -17 1 -28 -4 -28 -12
0 -8 -10 -22 -21 -33 l-22 -19 5 33 c4 29 2 32 -21 32 -19 0 -22 -3 -13 -12z"/>
<path d="M1658 1103 c-24 -28 -29 -53 -16 -76 15 -29 27 -37 59 -37 34 0 59
29 59 67 0 55 -68 85 -102 46z m72 -13 c26 -48 -9 -108 -47 -84 -22 13 -29 70
-12 90 17 20 47 17 59 -6z"/>
<path d="M1960 1100 c-43 -43 -14 -110 48 -110 56 0 82 70 42 110 -11 11 -31
20 -45 20 -14 0 -34 -9 -45 -20z m76 -14 c3 -13 4 -37 2 -52 -2 -25 -7 -29
-32 -29 -36 0 -53 37 -37 78 14 36 58 38 67 3z"/>
<path d="M2248 1113 c7 -3 12 -25 12 -58 0 -33 -5 -55 -12 -58 -7 -3 11 -6 40
-6 43 -1 52 2 51 17 0 10 -3 12 -6 5 -2 -7 -16 -13 -29 -13 -22 0 -24 4 -24
54 0 34 5 56 13 59 6 3 -4 5 -23 5 -19 0 -29 -2 -22 -5z"/>
<path d="M2738 1110 c-25 -15 -33 -66 -14 -95 12 -19 25 -25 51 -25 18 0 36 4
39 9 3 4 -6 6 -19 3 -34 -6 -55 14 -55 52 0 36 15 56 43 56 15 0 18 -5 14 -21
-3 -13 -1 -19 6 -16 7 2 12 12 12 23 0 22 -48 31 -77 14z"/>
<path d="M3036 1107 c3 -8 -6 -38 -19 -66 -23 -47 -24 -51 -7 -51 13 0 17 5
13 20 -5 17 0 20 27 20 27 0 32 -3 27 -20 -4 -16 0 -20 18 -20 l23 0 -32 62
c-17 34 -37 64 -44 66 -7 2 -10 -2 -6 -11z m27 -47 c4 -15 0 -20 -14 -20 -21
0 -22 1 -13 24 8 22 21 20 27 -4z"/>
<path d="M3291 1103 c-11 -22 -6 -32 32 -56 29 -18 35 -42 15 -51 -7 -3 -4 -5
7 -3 13 1 21 11 23 27 2 19 -6 30 -33 48 -37 24 -39 42 -3 42 14 0 18 -5 14
-16 -4 -10 -1 -14 6 -12 26 9 13 33 -19 36 -23 2 -34 -2 -42 -15z"/>
<path d="M3586 1107 c3 -8 -6 -38 -19 -66 -23 -47 -24 -51 -7 -51 13 0 17 5
13 20 -5 17 0 20 27 20 27 0 32 -3 27 -20 -4 -16 0 -20 18 -20 l23 0 -32 62
c-17 34 -37 64 -44 66 -7 2 -10 -2 -6 -11z m27 -47 c4 -15 0 -20 -14 -20 -21
0 -22 1 -13 24 8 22 21 20 27 -4z"/>
<path d="M3285 1020 c-9 -14 3 -30 22 -30 12 0 13 3 4 13 -6 8 -8 17 -4 20 3
4 1 7 -5 7 -6 0 -14 -4 -17 -10z"/>
</g>
</svg>
